PathFileType	4	(X/Y/Z)	..\data\2014019\dynamic\2014019_C5_03.trc
DataRate	CameraRate	NumFrames	NumMarkers	Units	OrigDataRate	OrigDataStartFrame	OrigNumFrames
100.000000	100.000000	4	52	mm	100.000000	0	142
Frame#	Time	L_IAS			L_IPS			R_IPS			R_IAS			L_FTC			L_FLE			L_FME			L_FAX			L_TTC			L_FAL			L_TAM			L_FCC			L_FM1			L_FM2			L_FM5			R_FTC			R_FLE			R_FME			R_FAX			R_TTC			R_FAL			R_TAM			R_FCC			R_FM1			R_FM2			R_FM5			CV7			TV10			SXS			SJN			L_SIA			L_SRS			L_SAA			L_SAE			L_HLE			L_HME			L_UOA			L_RSP			L_UHE			L_HM2			L_HM5			R_SIA			R_SRS			R_SAA			R_SAE			R_HLE			R_HME			R_UOA			R_RSP			R_UHE			R_HM2			R_HM5			
		X1	Y1	Z1	X2	Y2	Z2	X3	Y3	Z3	X4	Y4	Z4	X5	Y5	Z5	X6	Y6	Z6	X7	Y7	Z7	X8	Y8	Z8	X9	Y9	Z9	X10	Y10	Z10	X11	Y11	Z11	X12	Y12	Z12	X13	Y13	Z13	X14	Y14	Z14	X15	Y15	Z15	X16	Y16	Z16	X17	Y17	Z17	X18	Y18	Z18	X19	Y19	Z19	X20	Y20	Z20	X21	Y21	Z21	X22	Y22	Z22	X23	Y23	Z23	X24	Y24	Z24	X25	Y25	Z25	X26	Y26	Z26	X27	Y27	Z27	X28	Y28	Z28	X29	Y29	Z29	X30	Y30	Z30	X31	Y31	Z31	X32	Y32	Z32	X33	Y33	Z33	X34	Y34	Z34	X35	Y35	Z35	X36	Y36	Z36	X37	Y37	Z37	X38	Y38	Z38	X39	Y39	Z39	X40	Y40	Z40	X41	Y41	Z41	X42	Y42	Z42	X43	Y43	Z43	X44	Y44	Z44	X45	Y45	Z45	X46	Y46	Z46	X47	Y47	Z47	X48	Y48	Z48	X49	Y49	Z49	X50	Y50	Z50	X51	Y51	Z51	X52	Y52	Z52	

1	0	-1335.497924804688	900.1512451171877	113.935089111328	-1550.816650390625	959.1419677734377	152.5603942871092	-1565.458984375	967.9138183593752	243.1840972900389	-1373.5888671875	905.2573242187502	348.8262939453124	-1401.982177734375	835.456970214844	17.18996047973616	-1217.523559570313	474.4843139648439	82.89941406249987	-1230.47607421875	451.8606872558595	217.3968048095702	-1215.221923828125	415.2626037597657	79.19295501708972	-1158.918212890625	426.7795715332032	127.6754913330077	-1082.64990234375	84.08789825439455	120.0222778320312	-1060.757446289063	126.2803726196289	204.2895507812499	-1095.4140625	27.35741996765137	169.8722839355468	-929.9778442382815	127.6214981079102	196.9570312499999	-930.3652343750002	139.5596618652344	141.3412933349609	-948.656677246094	101.5573196411133	97.57814788818351	-1509.315063476563	852.7979736328127	409.2007751464843	-1591.648193359375	451.3191833496095	342.1423339843749	-1585.286376953125	447.9649658203126	204.972946166992	-1637.1591796875	404.9498901367189	340.0292358398436	-1585.71142578125	366.6988220214844	286.6580810546874	-1805.995239257813	104.3642272949219	281.3847045898436	-1778.788940429688	111.9839401245117	193.5295257568358	-1861.97705078125	77.43296813964845	224.4165649414061	-1671.466796875	22.77238845825196	204.109405517578	-1659.796264648438	34.58771133422852	259.6128845214842	-1712.22900390625	20.05304336547852	312.4985046386717	-1503.537475585938	1442.26123046875	236.1100616455077	-1571.296752929688	1230.176147460938	229.3924560546874	-1341.78271484375	1123.2607421875	221.7694244384764	-1379.642456054688	1354.541259765625	229.2027130126952	-1580.406982421875	1264.539428710938	161.4228057861326	-1537.550048828125	1392.701416015625	127.9924926757811	-1507.552856445313	1390.153198242188	65.10615539550764	-1460.775390625	1402.584594726563	47.53682708740217	-1603.025268554688	1104.982788085938	11.80746650695781	-1614.592651367188	1106.31884765625	79.69286346435528	-1627.39208984375	1093.575317382813	54.04499816894513	-1641.261108398438	852.729675292969	-4.932410240173541	-1694.375244140625	891.9669189453127	-35.09509277343771	-1676.15869140625	766.2999267578126	-19.08745956420919	-1754.530639648438	827.7718505859377	-32.0374107360842	-1577.728637695313	1260.27294921875	309.9556274414061	-1535.3779296875	1390.321533203125	339.4965209960936	-1490.011596679688	1392.202026367188	397.9377136230468	-1452.45263671875	1411.243041992188	400.0004577636718	-1449.730224609375	1089.0439453125	498.1968078613281	-1491.343505859375	1068.252319335938	432.4088134765624	-1476.480224609375	1042.278930664063	472.3663024902343	-1228.337280273438	978.7456665039065	442.7517089843749	-1263.80615234375	934.902526855469	484.6320190429687	-1144.322875976563	933.642272949219	445.6942138671875	-1217.91259765625	865.4275512695315	462.6598205566406	
2	0.01	-1314.294067382813	899.0726318359377	114.2994003295897	-1529.966918945313	957.7280273437502	150.7604827880858	-1545.164672851563	966.7175903320315	241.1551055908202	-1354.663452148438	904.122741699219	349.2510986328124	-1380.322509765625	834.1846923828127	16.87567520141585	-1196.517456054688	473.045867919922	83.35251617431628	-1213.438232421875	448.631561279297	217.2446899414062	-1193.864501953125	413.9530334472657	79.02214050292956	-1139.099975585938	425.2957153320314	129.1318511962889	-1060.152954101563	83.31568908691408	119.7672882080077	-1041.001098632813	124.9782791137696	205.0538024902343	-1074.548950195313	26.43478393554688	168.4366302490233	-910.0017089843752	126.8857955932617	201.6491088867187	-908.6832275390627	138.7301788330078	146.089859008789	-925.4777832031252	100.7674407958985	101.6691131591796	-1491.20751953125	852.5006103515627	407.7502746582031	-1576.537963867188	451.4200439453126	343.0076599121093	-1568.152709960938	446.7615051269532	205.9994049072264	-1623.261962890625	406.252166748047	340.769073486328	-1572.325927734375	365.8133239746094	288.397735595703	-1801.65771484375	110.7374114990235	283.1708679199217	-1773.5869140625	117.166130065918	195.5718841552733	-1858.140258789063	86.55825805664064	225.7841949462889	-1672.02587890625	22.64058494567871	204.1385498046874	-1660.134765625	34.12541580200196	259.4510498046873	-1712.346313476563	19.96491432189942	312.3719787597655	-1485.77587890625	1440.407348632813	234.4842376708983	-1552.52783203125	1227.962158203125	227.6603546142577	-1322.368896484375	1122.071166992188	221.8124237060546	-1361.342163085938	1353.048095703125	228.4740447998046	-1561.226196289063	1262.19189453125	159.7044830322264	-1518.70166015625	1390.6650390625	126.5003509521483	-1488.302612304688	1388.469848632813	63.97423934936506	-1441.580444335938	1400.845703125	46.4268722534178	-1586.59814453125	1105.014526367188	12.00442504882793	-1597.336303710938	1106.229736328125	80.09505462646466	-1610.47998046875	1093.859252929688	54.49090957641583	-1630.327026367188	853.6607666015627	-4.985164165497027	-1682.698974609375	894.2783813476565	-34.68621063232443	-1668.2021484375	767.9560546875001	-18.48011016845724	-1744.6279296875	831.9514160156252	-31.30939292907737	-1559.660034179688	1258.096435546875	308.0450134277343	-1518.244384765625	1388.472045898438	337.585723876953	-1473.487670898438	1390.614501953125	396.3826293945312	-1436.0341796875	1409.830444335938	398.7787780761718	-1433.30419921875	1087.836547851563	497.3366088867187	-1474.196533203125	1066.598754882813	431.2203369140624	-1459.340576171875	1040.6455078125	471.4037780761718	-1210.010498046875	982.1232910156252	441.8277587890624	-1244.4443359375	937.3137207031252	483.4956665039062	-1124.920654296875	939.2827148437502	444.5359497070312	-1196.744995117188	869.0415649414065	460.9988098144531	
3	0.02	-1292.813842773438	898.272888183594	114.728172302246	-1508.787841796875	956.6425781250002	149.1232299804686	-1524.448364257813	965.6265258789065	239.4192810058592	-1335.172485351563	903.0435791015627	349.5308532714843	-1358.255126953125	833.4486083984377	16.56735038757308	-1175.462036132813	471.9008178710939	83.79183197021472	-1196.072387695313	445.9031066894532	216.9714965820312	-1172.884887695313	412.8103942871095	78.84030151367175	-1119.539916992188	423.6050415039064	130.5061950683593	-1041.159057617188	81.93162536621095	119.5404968261718	-1024.173583984375	122.7164306640625	205.779312133789	-1057.715209960938	25.27382850646973	167.0584716796874	-893.2124633789065	123.5998764038086	206.0350646972656	-890.121032714844	135.3202667236328	150.5397796630859	-905.9659423828127	97.71418762207034	105.5307617187499	-1472.415161132813	852.0609130859377	406.4152221679687	-1560.324340820313	451.3465270996095	344.120635986328	-1549.871337890625	445.1510009765626	207.4073486328124	-1608.261352539063	407.5140380859376	341.8094787597655	-1557.875	364.7871093750001	290.528594970703	-1796.310668945313	117.6550827026367	285.3484497070311	-1767.318481445313	122.6973648071289	198.0308685302733	-1853.080322265625	96.5456237792969	227.4908905029295	-1672.839721679688	22.72847557067871	204.1290130615233	-1660.735717773438	33.66717910766602	259.2745971679686	-1712.540771484375	20.12381362915039	312.2680053710936	-1467.886352539063	1438.766357421875	232.6433563232421	-1533.51513671875	1225.9423828125	225.7936859130858	-1302.599487304688	1121.452026367188	221.7038574218749	-1342.909057617188	1351.9375	227.599395751953	-1541.749755859375	1260.063720703125	157.7153930664061	-1499.602783203125	1388.893432617188	124.7618713378905	-1468.709716796875	1387.054321289063	62.58232879638656	-1422.036254882813	1399.391845703125	45.16461563110335	-1569.456787109375	1105.145263671875	11.95698738098126	-1579.441284179688	1106.327270507813	80.26185607910138	-1592.863159179688	1094.193237304688	54.68030929565412	-1617.868408203125	854.6246337890627	-5.299284934997758	-1669.607177734375	896.4645996093752	-34.47585296630881	-1658.432983398438	769.6055297851565	-18.15889549255392	-1733.076049804688	835.8604736328127	-30.78322219848655	-1541.38037109375	1256.074462890625	305.857940673828	-1501.067138671875	1386.785522460938	335.3784790039061	-1456.983154296875	1389.217529296875	394.5809020996093	-1419.657470703125	1408.632202148438	397.3867797851562	-1417.22509765625	1086.858032226563	496.3021240234374	-1457.329956054688	1065.26025390625	429.8122863769531	-1442.619750976563	1039.316528320313	470.2420959472656	-1192.317138671875	984.9281005859377	441.0110168457031	-1225.945190429688	939.3259887695315	482.4924926757812	-1106.390747070313	944.0812988281252	443.6218566894531	-1176.663940429688	872.1059570312502	459.5704956054687	
4	0.03	-1271.122802734375	897.7613525390627	115.1869964599608	-1487.358520507813	955.8718261718752	147.7018737792967	-1503.390502929688	964.5874633789065	238.0386352539061	-1315.14453125	901.9436645507815	349.6223144531249	-1335.793334960938	833.3206176757815	16.23827743530257	-1154.46240234375	471.0413208007814	84.19670104980456	-1178.368530273438	443.7485656738282	216.6049499511718	-1152.338989257813	411.8348999023439	78.65413665771472	-1100.253662109375	421.7820434570314	131.7501373291014	-1025.401489257813	80.0037307739258	119.3427734374999	-1009.991760253906	119.6288681030274	206.4523315429687	-1044.561279296875	23.9563217163086	165.7811584472655	-879.2861328125002	117.9311904907227	210.0165863037109	-874.3838500976565	129.4823303222657	154.591094970703	-889.8562011718752	92.53009033203126	109.0323638916015	-1452.962280273438	851.3809204101565	405.2219543457031	-1542.951904296875	451.0204162597657	345.469024658203	-1530.360717773438	443.0500488281251	209.1906738281249	-1592.081909179688	408.6627807617189	343.1506042480468	-1542.274291992188	363.5690002441407	293.0348815917968	-1789.784545898438	125.0829467773438	287.881134033203	-1759.830444335938	128.5268249511719	200.8731689453123	-1846.570068359375	107.3591918945313	229.5150299072264	-1673.799438476563	23.15862274169922	204.1120758056639	-1661.532592773438	33.28575897216798	259.1270446777342	-1712.740966796875	20.67814064025879	312.1990661621092	-1449.853881835938	1437.35009765625	230.6141815185546	-1514.284301757813	1224.142456054688	223.832565307617	-1282.514770507813	1121.364135742188	221.4677581787108	-1324.341796875	1351.200317382813	226.6007690429686	-1521.988403320313	1258.159301757813	155.4865875244139	-1480.257202148438	1387.37646484375	122.7916793823241	-1448.788940429688	1385.876708984375	60.93904113769515	-1402.152587890625	1398.20263671875	43.76450347900374	-1551.6171875	1105.328857421875	11.63462352752667	-1560.9619140625	1106.580200195313	80.15778350830061	-1574.576538085938	1094.537841796875	54.57626724243146	-1603.851318359375	855.5330200195315	-5.899120807647902	-1655.087280273438	898.4153442382815	-34.51548385620139	-1646.75390625	771.1267700195315	-18.14729499816915	-1719.84375	839.3260498046877	-30.48645210266135	-1522.900268554688	1254.2265625	303.4217224121093	-1483.825927734375	1385.280151367188	332.9066162109374	-1440.468139648438	1388.018920898438	392.5612182617187	-1403.287109375	1407.64794921875	395.8463439941406	-1401.470092773438	1086.095458984375	495.0897216796874	-1440.740600585938	1064.2294921875	428.1909179687499	-1426.307983398438	1038.285522460938	468.8796081542968	-1175.2080078125	987.1082763671877	440.3201599121093	-1208.281860351563	940.8742675781252	481.6271667480468	-1088.671875	947.9453125000002	442.9684143066406	-1157.646118164063	874.5285644531252	458.3829650878906	
